<?xml version="1.0" encoding="UTF-8" standalone="no"?>
<!-- Created with Inkscape (http://www.inkscape.org/) -->

<svg
   xmlns:dc="http://purl.org/dc/elements/1.1/"
   xmlns:cc="http://creativecommons.org/ns#"
   xmlns:rdf="http://www.w3.org/1999/02/22-rdf-syntax-ns#"
   xmlns:svg="http://www.w3.org/2000/svg"
   xmlns="http://www.w3.org/2000/svg"
   xmlns:sodipodi="http://sodipodi.sourceforge.net/DTD/sodipodi-0.dtd"
   xmlns:inkscape="http://www.inkscape.org/namespaces/inkscape"
   width="85.570366"
   height="59.064163"
   id="svg2"
   version="1.1"
   inkscape:version="0.48.3.1 r9886"
   inkscape:export-filename="/home/ivajo/Imágenes/DevHunter-5.png"
   inkscape:export-xdpi="151"
   inkscape:export-ydpi="151"
   sodipodi:docname="DevHunter-Logo-Icono.svg">
  <defs
     id="defs4" />
  <sodipodi:namedview
     id="base"
     pagecolor="#ffffff"
     bordercolor="#666666"
     borderopacity="1.0"
     inkscape:pageopacity="0.0"
     inkscape:pageshadow="2"
     inkscape:zoom="5.1200001"
     inkscape:cx="-24.048758"
     inkscape:cy="37.454811"
     inkscape:document-units="px"
     inkscape:current-layer="layer1"
     showgrid="false"
     fit-margin-top="2"
     fit-margin-left="2"
     fit-margin-right="2"
     fit-margin-bottom="1.5"
     inkscape:window-width="1366"
     inkscape:window-height="746"
     inkscape:window-x="0"
     inkscape:window-y="0"
     inkscape:window-maximized="1" />
  <metadata
     id="metadata7">
    <rdf:RDF>
      <cc:Work
         rdf:about="">
        <dc:format>image/svg+xml</dc:format>
        <dc:type
           rdf:resource="http://purl.org/dc/dcmitype/StillImage" />
        <dc:title />
      </cc:Work>
    </rdf:RDF>
  </metadata>
  <g
     inkscape:label="Capa 1"
     inkscape:groupmode="layer"
     id="layer1"
     transform="translate(-199.42859,-502.79796)">
    <g
       id="g3797">
      <rect
         style="fill:#b3b3b3;fill-opacity:1;stroke:none"
         id="rect2993-5"
         width="42.645386"
         height="55.564163"
         x="239.84082"
         y="504.79794"
         rx="1.3527343"
         ry="3.3448458" />
      <g
         transform="matrix(1.5636147,0,0,1.5636147,-113.52809,-316.44266)"
         id="g3771">
        <rect
           style="fill:#3cadd4;fill-opacity:1;stroke:none"
           id="rect2993"
           width="27.27359"
           height="35.535713"
           x="201.42857"
           y="525.2193"
           rx="0.86513275"
           ry="2.1391752" />
        <g
           id="flowRoot2985"
           style="font-size:40px;font-style:normal;font-weight:normal;line-height:125%;letter-spacing:0px;word-spacing:0px;fill:#ffffff;fill-opacity:1;stroke:none;font-family:Sans"
           transform="matrix(0.95889386,0,0,1.0576689,83.394296,3.1976544)">
          <path
             inkscape:connector-curvature="0"
             id="path2993"
             style="font-variant:normal;font-weight:bold;font-stretch:normal;fill:#ffffff;font-family:Raleway;-inkscape-font-specification:Raleway Bold"
             d="m 125.80375,523.81532 0,-28.4 10.32,0 c 2.31998,3e-5 4.34665,0.37336 6.08,1.12 1.75998,0.74669 3.22664,1.76003 4.4,3.04 1.17331,1.28002 2.05331,2.78669 2.64,4.52 0.58664,1.70669 0.87997,3.53335 0.88,5.48 -3e-5,2.16001 -0.33336,4.12001 -1,5.88 -0.64003,1.73334 -1.57336,3.22667 -2.8,4.48 -1.22669,1.22667 -2.70669,2.18667 -4.44,2.88 -1.70668,0.66667 -3.62668,1 -5.76,1 l -10.32,0 m 18.76,-14.24 c -2e-5,-1.35998 -0.18669,-2.61331 -0.56,-3.76 -0.37335,-1.14665 -0.92002,-2.13331 -1.64,-2.96 -0.72002,-0.82664 -1.61335,-1.46664 -2.68,-1.92 -1.04002,-0.45331 -2.22668,-0.67997 -3.56,-0.68 l -4.8,0 0,18.72 4.8,0 c 1.35999,10e-6 2.55998,-0.23999 3.6,-0.72 1.06665,-0.47999 1.94665,-1.13333 2.64,-1.96 0.71998,-0.85332 1.26665,-1.85332 1.64,-3 0.37331,-1.14665 0.55998,-2.38665 0.56,-3.72" />
        </g>
        <text
           xml:space="preserve"
           style="font-size:39.00125122000000033px;font-style:normal;font-weight:normal;line-height:125%;letter-spacing:0px;word-spacing:0px;fill:#ffffff;fill-opacity:1;stroke:none;font-family:Sans"
           x="247.43442"
           y="512.89166"
           id="text2999"
           sodipodi:linespacing="125%"
           transform="scale(0.91900218,1.0881367)"><tspan
             style="font-style:normal;font-variant:normal;font-weight:bold;font-stretch:normal;fill:#ffffff;fill-opacity:1;font-family:Raleway;-inkscape-font-specification:Raleway Bold"
             sodipodi:role="line"
             id="tspan3001"
             x="247.43442"
             y="512.89166">H</tspan></text>
      </g>
    </g>
  </g>
</svg>
